<?xml version="1.0" encoding="utf-8"?>
<!-- Generator: Adobe Illustrator 17.0.0, SVG Export Plug-In . SVG Version: 6.00 Build 0)  -->
<!DOCTYPE svg PUBLIC "-//W3C//DTD SVG 1.1//EN" "http://www.w3.org/Graphics/SVG/1.1/DTD/svg11.dtd">
<svg version="1.1" id="Layer_1" xmlns="http://www.w3.org/2000/svg" xmlns:xlink="http://www.w3.org/1999/xlink" x="0px" y="0px"
	 width="373.5px" height="44px" viewBox="0 0 373.5 44" enable-background="new 0 0 373.5 44" xml:space="preserve">
<g>
	<path fill="#39B54A" d="M18.91,14.501c0.056,0.045,0.123,0.068,0.192,0.068c0.003,0,0.007,0,0.01,0
		c0.169,0,0.305-0.137,0.305-0.305c0-0.068-0.022-0.13-0.059-0.18c-0.075-0.189-0.307-0.791-0.508-1.537
		c0.195,0.336,0.433,0.624,0.732,0.847c0.086,0.063,0.197,0.079,0.298,0.038c0.099-0.04,0.169-0.129,0.186-0.235
		c0.104-0.65,0.164-1.496,0.207-2.374c0.06,0.874,0.136,1.727,0.249,2.367c0.018,0.107,0.092,0.196,0.195,0.234
		c0.102,0.037,0.216,0.019,0.3-0.051c0.243-0.2,0.449-0.456,0.628-0.751c-0.154,0.531-0.315,0.99-0.413,1.271
		c-0.125,0.356-0.15,0.43-0.057,0.566c0.056,0.08,0.147,0.129,0.245,0.131c0.002,0,0.004,0,0.006,0c0.096,0,0.186-0.045,0.244-0.121
		l0.247-0.326c2.073-2.727,4.217-5.546-1.42-11.829c-0.054-0.06-0.131-0.097-0.211-0.101c-0.083-0.009-0.161,0.024-0.221,0.078
		c-2.537,2.296-3.79,4.66-3.723,7.028C16.43,12.462,18.809,14.419,18.91,14.501z M18.342,13.001
		c-0.629-0.822-1.345-2.101-1.389-3.699c-0.06-2.111,1.049-4.246,3.295-6.349c4.331,4.925,3.625,7.359,2.03,9.672
		c0.246-0.883,0.461-1.934,0.379-2.762c-0.015-0.146-0.13-0.26-0.276-0.274c-0.149-0.017-0.28,0.078-0.321,0.219
		c-0.331,1.138-0.618,2.044-1.028,2.643c-0.125-1.031-0.196-2.372-0.254-3.489c-0.12-2.307-0.134-2.548-0.526-2.562
		c-0.428,0-0.441,0.367-0.524,2.751c-0.037,1.069-0.081,2.353-0.186,3.345c-0.442-0.59-0.683-1.497-0.987-2.775
		c-0.034-0.142-0.173-0.258-0.31-0.234c-0.146,0.006-0.268,0.115-0.289,0.259C17.799,10.78,18.064,12.051,18.342,13.001z"/>
	<path fill="#39B54A" d="M23.925,15.363c0.123,0.065,0.276,0.033,0.368-0.072c0.006-0.007,0.27-0.307,0.67-0.684
		c-0.077,0.163-0.134,0.332-0.166,0.51c-0.019,0.105,0.017,0.212,0.097,0.284c0.08,0.071,0.191,0.095,0.293,0.064
		c0.291-0.09,0.623-0.212,0.976-0.353c-0.324,0.199-0.622,0.392-0.865,0.57c-0.088,0.064-0.135,0.17-0.124,0.278
		c0.011,0.108,0.079,0.202,0.178,0.247c0.121,0.055,0.252,0.099,0.393,0.132c-0.272,0.041-0.507,0.07-0.67,0.089
		c-0.31,0.038-0.393,0.048-0.473,0.189c-0.048,0.086-0.053,0.19-0.011,0.279c0.041,0.089,0.123,0.153,0.219,0.172l0.321,0.062
		c0.755,0.148,1.537,0.301,2.303,0.301c0,0,0,0,0,0c2.471,0,4.192-1.653,5.752-5.527c0.03-0.075,0.03-0.16-0.002-0.234
		c-0.032-0.075-0.092-0.134-0.168-0.164c-1.357-0.54-2.615-0.813-3.74-0.813c-4.477,0-5.501,4.288-5.51,4.332
		C23.734,15.16,23.8,15.3,23.925,15.363z M29.275,11.302c0.968,0,2.052,0.222,3.226,0.66c-1.787,4.272-3.562,4.858-5.069,4.858
		c-0.232,0-0.465-0.015-0.701-0.041c0.63-0.137,1.294-0.339,1.774-0.637c0.124-0.077,0.176-0.232,0.124-0.368
		c-0.052-0.136-0.19-0.219-0.338-0.192c-0.843,0.148-1.534,0.255-2.07,0.212c0.677-0.43,1.541-0.912,2.269-1.318
		c1.689-0.942,1.827-1.019,1.68-1.349c-0.049-0.11-0.201-0.197-0.321-0.197c-0.229,0-0.683,0.195-1.924,0.752
		c-0.725,0.326-1.586,0.712-2.302,0.985c0.288-0.464,0.816-0.921,1.546-1.523c0.113-0.093,0.144-0.253,0.074-0.382
		c-0.07-0.128-0.221-0.189-0.361-0.145c-0.694,0.22-1.402,0.727-1.962,1.207C25.561,12.709,26.85,11.302,29.275,11.302z"/>
	<path fill="#39B54A" d="M20.324,15.191c-2.121,0-3.84,1.719-3.84,3.84c0,2.121,1.719,3.84,3.84,3.84c2.121,0,3.84-1.719,3.84-3.84
		C24.164,16.91,22.445,15.191,20.324,15.191z M20.324,22.295c-1.187,0-2.15-0.962-2.15-2.15s0.963-2.15,2.15-2.15
		c1.187,0,2.15,0.962,2.15,2.15S21.512,22.295,20.324,22.295z"/>
	<path fill="#39B54A" d="M26.779,7.942C26.78,7.942,26.78,7.942,26.779,7.942c0.087,0,0.161-0.059,0.181-0.142
		c0.001-0.004,0.043-0.169,0.121-0.402c0.008,0.065,0.02,0.13,0.04,0.193c0.019,0.063,0.069,0.111,0.133,0.127
		c0.062,0.016,0.131-0.001,0.177-0.047c0.076-0.074,0.156-0.158,0.24-0.251c-0.062,0.108-0.119,0.21-0.165,0.303
		c-0.03,0.06-0.026,0.131,0.01,0.186c0.037,0.055,0.094,0.081,0.166,0.085c0.043-0.002,0.086-0.007,0.129-0.014
		c-0.088,0.062-0.164,0.114-0.221,0.152c-0.141,0.095-0.188,0.127-0.191,0.227c-0.001,0.06,0.026,0.117,0.073,0.153
		c0.033,0.026,0.074,0.039,0.115,0.039c0.017,0,0.035-0.002,0.052-0.007l0.171-0.05c1.453-0.421,2.955-0.856,2.613-4.558
		c-0.005-0.049-0.029-0.095-0.067-0.127c-0.038-0.031-0.09-0.046-0.137-0.042c-1.499,0.146-2.563,0.654-3.164,1.512
		c-0.799,1.141-0.47,2.466-0.456,2.522C26.619,7.884,26.694,7.942,26.779,7.942z M27.36,5.495c0.511-0.729,1.42-1.177,2.706-1.334
		c0.195,2.496-0.49,3.267-1.46,3.677c0.237-0.205,0.465-0.437,0.604-0.67c0.046-0.077,0.031-0.176-0.036-0.236
		c-0.035-0.031-0.08-0.047-0.125-0.047c-0.04,0-0.079,0.012-0.113,0.038c-0.298,0.226-0.603,0.456-0.886,0.588
		c0.217-0.364,0.498-0.787,0.737-1.147c0.592-0.89,0.64-0.962,0.473-1.098c-0.033-0.027-0.082-0.044-0.125-0.044
		c-0.14,0-0.22,0.082-0.852,0.874c-0.256,0.321-0.558,0.7-0.827,1.002c0.037-0.28,0.172-0.615,0.361-1.052
		c0.035-0.082,0.007-0.178-0.067-0.229c-0.074-0.049-0.173-0.041-0.237,0.022c-0.256,0.255-0.459,0.627-0.608,0.972
		C26.937,6.413,27.052,5.935,27.36,5.495z"/>
	<circle fill="#39B54A" cx="20.324" cy="20.853" r="1.083"/>
	<path fill="#39B54A" d="M28.397,26.052c-0.001,0-0.003,0-0.004,0c-0.086,0.003-0.158,0.064-0.176,0.148
		c-0.018,0.084,0.024,0.169,0.1,0.207c0.004,0.002,0.156,0.077,0.365,0.203c-0.064-0.006-0.13-0.008-0.195-0.002
		c-0.065,0.005-0.123,0.044-0.153,0.102c-0.03,0.058-0.026,0.128,0.008,0.183c0.056,0.09,0.122,0.187,0.194,0.288
		c-0.092-0.084-0.18-0.161-0.262-0.227c-0.051-0.042-0.122-0.052-0.183-0.03c-0.062,0.024-0.107,0.078-0.119,0.144
		c-0.007,0.042-0.012,0.086-0.014,0.129c-0.043-0.103-0.077-0.189-0.102-0.249c-0.062-0.155-0.096-0.241-0.226-0.241
		c0,0-0.001,0-0.001,0c-0.052,0-0.101,0.022-0.136,0.06c-0.035,0.038-0.053,0.089-0.05,0.14l0.012,0.178
		c0.1,1.509,0.202,3.07,3.892,3.529c0.008,0.001,0.015,0.001,0.023,0.001c0.042,0,0.082-0.014,0.115-0.04
		c0.039-0.03,0.064-0.075,0.071-0.125c0.176-1.47-0.081-2.606-0.765-3.377C29.932,26.105,28.685,26.052,28.397,26.052z
		 M31.205,30.219c-2.479-0.344-3.086-1.178-3.278-2.213c0.149,0.275,0.328,0.547,0.525,0.733c0.066,0.062,0.165,0.068,0.238,0.016
		c0.073-0.053,0.098-0.149,0.06-0.23c-0.18-0.39-0.324-0.716-0.386-0.992c0.31,0.289,0.663,0.655,0.963,0.966
		c0.654,0.677,0.726,0.74,0.848,0.74c0,0,0,0,0,0c0.043,0,0.09-0.016,0.123-0.044c0.19-0.154,0.085-0.285-0.602-1.132
		c-0.258-0.318-0.563-0.694-0.801-1.021c0.269,0.098,0.57,0.304,0.949,0.576c0.073,0.053,0.173,0.046,0.238-0.016
		c0.065-0.061,0.077-0.161,0.029-0.236c-0.195-0.307-0.517-0.586-0.824-0.806c0.394,0.12,0.851,0.343,1.224,0.763
		C31.093,27.978,31.326,28.951,31.205,30.219z"/>
	<path fill="#39B54A" d="M20.648,24.285c-0.406-0.086-0.788-0.167-1.093-0.253c-2.627-0.737-3.789-2.343-4.001-3.6
		c-0.03-0.186-0.211-0.315-0.391-0.278c-0.185,0.031-0.31,0.206-0.278,0.391c0.024,0.145,0.076,0.364,0.168,0.624l-0.014,0.012
		c-0.037-0.017-0.076-0.032-0.118-0.032c-0.123,0-0.169,0.041-0.367,0.215c-0.079,0.07-0.194,0.17-0.333,0.287
		c0.029-0.065,0.054-0.131,0.075-0.197c0.032-0.104,0.008-0.217-0.065-0.297c-0.074-0.08-0.183-0.115-0.29-0.093
		c-0.167,0.036-0.353,0.082-0.55,0.136c0.18-0.094,0.348-0.187,0.496-0.276c0.091-0.055,0.148-0.154,0.148-0.261
		c0-0.107-0.055-0.206-0.147-0.262c-0.09-0.055-0.184-0.102-0.284-0.141c0.338-0.024,0.592-0.026,0.676-0.026
		c0.002,0,0.005,0,0.008,0c0.138,0,0.259-0.093,0.295-0.226c0.036-0.135-0.024-0.278-0.146-0.346
		c-0.045-0.025-1.112-0.61-2.525-0.61c-1.654,0-3.922,0.81-5.337,4.664c-0.028,0.076-0.025,0.16,0.01,0.234
		c0.034,0.074,0.096,0.131,0.173,0.158c1.549,0.561,2.822,0.834,3.891,0.834c2.551,0,3.483-1.568,4.386-3.085l0.147-0.247
		c0.011-0.019,0.013-0.041,0.018-0.062l0.008-0.001c0.47,1.013,1.572,2.409,4.162,3.136c0.326,0.091,0.719,0.175,1.136,0.263
		c0.726,0.154,1.537,0.328,2.305,0.596h-3.544c-0.187,0-0.339,0.152-0.339,0.339s0.152,0.339,0.339,0.339h4.924
		c0.011,0,0.021-0.005,0.032-0.007c0.376,0.244,0.706,0.538,0.971,0.892h-8c-0.187,0-0.339,0.152-0.339,0.339
		c0,0.187,0.152,0.339,0.339,0.339h8.386c0.106,0.257,0.186,0.536,0.228,0.846h-9.788c-0.187,0-0.339,0.152-0.339,0.339
		s0.152,0.339,0.339,0.339h9.819c-0.007,0.309-0.046,0.588-0.107,0.846h-9.478c-0.187,0-0.339,0.152-0.339,0.339
		c0,0.187,0.152,0.339,0.339,0.339h9.25c-0.158,0.332-0.359,0.613-0.591,0.846h-6.9c-0.187,0-0.339,0.152-0.339,0.339
		c0,0.187,0.152,0.339,0.339,0.339h5.937c-1.04,0.515-2.136,0.534-2.223,0.534c-0.187,0-0.339,0.152-0.338,0.34
		c0,0.187,0.151,0.339,0.339,0.339c0.048,0,4.797-0.05,4.797-4.366C26.527,25.533,22.989,24.782,20.648,24.285z M10.65,24.333
		c-0.931,0-2.042-0.227-3.39-0.694c1.03-2.602,2.634-3.975,4.653-3.975c0.298,0,0.58,0.03,0.837,0.076
		c-0.608,0.093-1.279,0.26-1.788,0.56c-0.126,0.074-0.181,0.227-0.132,0.365c0.049,0.137,0.187,0.219,0.333,0.199
		c0.752-0.114,1.353-0.191,1.808-0.135c-0.588,0.299-1.308,0.619-1.92,0.891c-1.466,0.652-1.643,0.75-1.72,0.951
		c-0.029,0.075-0.027,0.176,0.006,0.25c0.049,0.11,0.194,0.192,0.315,0.192c0.186,0,0.568-0.125,1.611-0.485
		c0.667-0.229,1.453-0.5,2.119-0.692c-0.295,0.355-0.746,0.723-1.296,1.156c-0.115,0.09-0.15,0.25-0.083,0.38
		c0.068,0.13,0.217,0.196,0.357,0.153c0.427-0.125,0.889-0.39,1.313-0.681C13.008,23.717,12.171,24.333,10.65,24.333z"/>
	<path fill="#39B54A" d="M22.135,34.236l-0.623-0.174c-4.043-1.125-6.714-1.867-6.714-4.7c0-2.546,2.783-3.632,3.1-3.747
		c0.176-0.064,0.267-0.259,0.203-0.435c-0.064-0.176-0.26-0.265-0.435-0.203c-0.363,0.132-3.547,1.378-3.547,4.385
		c0,3.348,3.024,4.189,7.21,5.354l0.622,0.173c3.693,1.034,3.781,3.323,3.819,4.3c0.007,0.183,0.157,0.326,0.339,0.326
		c0.004,0,0.009,0,0.013,0c0.187-0.007,0.333-0.165,0.326-0.352C26.409,38.135,26.304,35.403,22.135,34.236z"/>
	<path fill="#39B54A" d="M12.5,8.495l0.171,0.05c0.017,0.005,0.035,0.007,0.052,0.007c0.041,0,0.081-0.013,0.115-0.039
		c0.047-0.036,0.075-0.094,0.073-0.153c-0.003-0.1-0.05-0.132-0.191-0.227c-0.057-0.039-0.134-0.09-0.221-0.152
		c0.043,0.007,0.086,0.012,0.129,0.014c0.064-0.004,0.13-0.03,0.166-0.085c0.036-0.056,0.04-0.127,0.01-0.186
		c-0.047-0.093-0.103-0.196-0.165-0.304c0.084,0.092,0.164,0.177,0.24,0.251c0.046,0.046,0.114,0.063,0.177,0.047
		c0.063-0.016,0.114-0.064,0.133-0.127c0.019-0.063,0.032-0.127,0.04-0.193c0.078,0.232,0.12,0.397,0.121,0.401
		c0.02,0.083,0.095,0.142,0.18,0.142c0,0,0,0,0.001,0c0.085,0,0.16-0.058,0.181-0.14c0.015-0.056,0.344-1.381-0.456-2.522
		c-0.601-0.857-1.665-1.366-3.164-1.512C10.04,3.763,9.993,3.779,9.955,3.81C9.917,3.842,9.893,3.888,9.888,3.937
		C9.545,7.64,11.048,8.075,12.5,8.495z M10.244,4.161c1.283,0.156,2.192,0.603,2.703,1.33c0.308,0.438,0.424,0.917,0.456,1.317
		c-0.149-0.344-0.351-0.714-0.607-0.968c-0.063-0.063-0.162-0.072-0.237-0.022c-0.074,0.051-0.102,0.147-0.067,0.229
		c0.188,0.437,0.323,0.772,0.361,1.052c-0.268-0.302-0.569-0.679-0.825-1c-0.634-0.794-0.714-0.876-0.855-0.876
		c-0.043,0-0.092,0.017-0.125,0.044c-0.167,0.135-0.119,0.208,0.473,1.098c0.239,0.36,0.52,0.782,0.737,1.147
		c-0.283-0.132-0.587-0.363-0.886-0.588c-0.072-0.055-0.171-0.05-0.238,0.01c-0.067,0.06-0.082,0.159-0.036,0.236
		c0.14,0.233,0.367,0.465,0.604,0.67C10.734,7.428,10.049,6.657,10.244,4.161z"/>
	<path fill="#39B54A" d="M37.289,18.233c-0.974-1.18-2.007-1.778-3.071-1.778c-1.366,0-2.259,0.99-2.296,1.032
		c-0.057,0.064-0.063,0.159-0.015,0.229c0.048,0.071,0.141,0.1,0.219,0.07c0.004-0.001,0.164-0.06,0.401-0.124
		c-0.05,0.043-0.096,0.089-0.138,0.14c-0.042,0.051-0.053,0.12-0.031,0.181c0.022,0.062,0.075,0.107,0.138,0.121
		c0.104,0.021,0.219,0.041,0.342,0.058c-0.124,0.009-0.241,0.019-0.344,0.033c-0.066,0.008-0.122,0.051-0.149,0.112
		c-0.026,0.061-0.017,0.132,0.022,0.185c0.026,0.035,0.054,0.068,0.084,0.1c-0.101-0.039-0.187-0.073-0.25-0.098
		c-0.131-0.053-0.151-0.061-0.195-0.061c-0.098,0-0.18,0.076-0.187,0.174c-0.005,0.06,0.02,0.119,0.067,0.157l0.136,0.114
		c0.628,0.525,1.278,1.068,2.203,1.068c0,0,0,0,0,0c0.851,0,1.845-0.474,3.038-1.449c0.038-0.031,0.063-0.077,0.068-0.126
		C37.336,18.321,37.321,18.271,37.289,18.233z M34.226,19.572c-0.463,0-0.851-0.164-1.214-0.401
		c0.272,0.074,0.558,0.129,0.809,0.129l0.086-0.002c0.09-0.005,0.163-0.072,0.176-0.161c0.012-0.089-0.04-0.174-0.125-0.203
		c-0.354-0.121-0.716-0.245-0.983-0.405c0.423-0.024,0.931-0.028,1.363-0.03c1.07-0.007,1.157-0.008,1.174-0.222
		c0.004-0.049-0.015-0.108-0.047-0.146c-0.085-0.101-0.208-0.121-1.189-0.2c-0.408-0.033-0.89-0.072-1.29-0.125
		c0.253-0.126,0.606-0.201,1.073-0.289c0.088-0.017,0.152-0.093,0.152-0.183c0-0.09-0.062-0.166-0.15-0.184
		c-0.324-0.065-0.766-0.032-1.142,0.038c0.34-0.191,0.784-0.358,1.3-0.358c0.904,0,1.799,0.504,2.661,1.498
		C35.822,19.165,34.953,19.572,34.226,19.572z"/>
	<path fill="#39B54A" d="M28.928,19.075c-1.4,0-2.457,0.579-2.502,0.604c-0.121,0.067-0.162,0.209-0.127,0.343
		c0.035,0.135,0.176,0.228,0.315,0.228c0.066,0,0.302,0.002,0.625,0.025c-0.094,0.038-0.184,0.083-0.27,0.135
		c-0.091,0.056-0.147,0.155-0.147,0.262c0,0.106,0.057,0.206,0.148,0.261c0.14,0.084,0.298,0.172,0.467,0.261
		c-0.185-0.051-0.36-0.094-0.518-0.128c-0.107-0.022-0.217,0.013-0.29,0.093c-0.073,0.08-0.098,0.194-0.065,0.297
		c0.02,0.062,0.043,0.124,0.069,0.184c-0.127-0.107-0.235-0.202-0.316-0.273c-0.177-0.156-0.237-0.204-0.334-0.212l-0.003-0.011
		c0.366-0.968,0.294-1.787,0.293-1.803c-0.019-0.186-0.191-0.322-0.371-0.302c-0.186,0.018-0.322,0.184-0.304,0.37
		c0.011,0.114,0.232,2.798-2.859,3.828c-0.178,0.059-0.273,0.251-0.214,0.429c0.047,0.142,0.18,0.232,0.322,0.232
		c0.035,0,0.072-0.006,0.107-0.017c1.499-0.5,2.32-1.359,2.775-2.197l-0.002-0.003l0.003,0c0,0.001-0.001,0.002-0.002,0.003
		l0.105,0.176c0.894,1.501,1.818,3.054,4.344,3.054c0,0,0,0,0,0c1.058,0,2.319-0.27,3.853-0.826
		c0.076-0.028,0.138-0.085,0.173-0.158c0.034-0.074,0.038-0.158,0.01-0.234C32.813,19.877,30.566,19.075,28.928,19.075z
		 M30.179,24.302C30.178,24.302,30.178,24.302,30.179,24.302c-1.496,0-2.323-0.601-2.979-1.456c0.415,0.284,0.867,0.541,1.284,0.663
		c0.141,0.044,0.29-0.023,0.357-0.153c0.067-0.13,0.032-0.289-0.083-0.38c-0.471-0.371-0.954-0.752-1.275-1.136
		c0.656,0.19,1.429,0.456,2.086,0.682c1.035,0.356,1.413,0.481,1.598,0.481c0.12,0,0.265-0.082,0.314-0.192
		c0.033-0.074,0.035-0.175,0.006-0.25c-0.076-0.2-0.252-0.297-1.705-0.943c-0.602-0.268-1.311-0.584-1.892-0.878
		c0.449-0.054,1.04,0.023,1.779,0.135c0.147,0.024,0.285-0.062,0.333-0.199c0.049-0.138-0.006-0.291-0.132-0.365
		c-0.498-0.294-1.155-0.459-1.757-0.552c0.25-0.044,0.524-0.072,0.814-0.072c1.997,0,3.584,1.357,4.603,3.931
		C32.197,24.078,31.098,24.302,30.179,24.302z"/>
	<path fill="#39B54A" d="M8.424,18.765c0.046-0.038,0.072-0.097,0.067-0.157c-0.007-0.098-0.09-0.174-0.187-0.174
		c-0.044,0-0.064,0.008-0.195,0.061c-0.063,0.025-0.148,0.06-0.249,0.098c0.03-0.031,0.058-0.064,0.083-0.099
		c0.04-0.053,0.049-0.124,0.023-0.185c-0.026-0.061-0.083-0.104-0.149-0.112c-0.104-0.014-0.22-0.024-0.344-0.033
		c0.123-0.017,0.238-0.037,0.342-0.058c0.064-0.014,0.117-0.059,0.138-0.121c0.022-0.061,0.01-0.13-0.031-0.181
		c-0.042-0.051-0.088-0.098-0.137-0.14c0.237,0.065,0.396,0.123,0.4,0.124c0.079,0.03,0.171,0.001,0.219-0.07
		c0.048-0.071,0.043-0.165-0.015-0.229c-0.037-0.042-0.931-1.032-2.296-1.032c-1.064,0-2.098,0.598-3.071,1.778
		c-0.032,0.038-0.047,0.088-0.042,0.137c0.005,0.049,0.03,0.095,0.068,0.126c1.193,0.975,2.186,1.449,3.038,1.449
		c0.924,0,1.574-0.543,2.203-1.068L8.424,18.765z M6.252,17.516c0.467,0.089,0.82,0.164,1.073,0.289
		c-0.4,0.053-0.882,0.092-1.29,0.125c-0.981,0.079-1.104,0.1-1.189,0.2c-0.032,0.038-0.051,0.096-0.047,0.145
		c0.017,0.215,0.104,0.216,1.174,0.223c0.432,0.002,0.94,0.006,1.363,0.03c-0.267,0.16-0.63,0.284-0.983,0.405
		c-0.085,0.029-0.137,0.114-0.125,0.203c0.013,0.089,0.086,0.156,0.176,0.161L6.489,19.3c0.251,0,0.537-0.055,0.809-0.129
		c-0.363,0.237-0.751,0.401-1.213,0.401c-0.728,0-1.597-0.407-2.653-1.246c0.861-0.994,1.756-1.498,2.661-1.498
		c0.516,0,0.961,0.167,1.3,0.358c-0.376-0.071-0.818-0.103-1.142-0.038C6.163,17.166,6.1,17.243,6.1,17.333
		C6.1,17.423,6.164,17.499,6.252,17.516z"/>
	<path fill="#39B54A" d="M24.585,38.759h-8.406c-1.186,0-1.186-0.329-1.186-0.677c0-0.071,0.012-0.139,0.021-0.208h9.297
		c0.187,0,0.339-0.152,0.339-0.339c0-0.187-0.152-0.339-0.339-0.339H15.24c0.162-0.295,0.39-0.565,0.648-0.807h6.546
		c0.187,0,0.339-0.152,0.339-0.339c0-0.187-0.152-0.339-0.339-0.339h-5.663c0.584-0.376,1.091-0.594,1.103-0.599
		c0.172-0.073,0.254-0.271,0.181-0.444c-0.072-0.172-0.271-0.254-0.443-0.182c-0.12,0.05-2.635,1.125-3.186,2.909
		c-0.01,0.023-0.014,0.047-0.019,0.072c-0.055,0.198-0.092,0.402-0.092,0.617c0,0.95,0.557,1.356,1.864,1.356h8.406
		c0.187,0,0.339-0.152,0.339-0.339C24.924,38.911,24.772,38.759,24.585,38.759z"/>
	<path fill="#39B54A" d="M13.372,17.43c0.766,0,1.548-0.153,2.303-0.301l0.321-0.062c0.096-0.019,0.178-0.083,0.219-0.171
		c0.041-0.089,0.038-0.193-0.01-0.278c-0.079-0.142-0.171-0.153-0.474-0.19c-0.163-0.02-0.398-0.048-0.67-0.089
		c0.141-0.033,0.272-0.077,0.393-0.132c0.099-0.045,0.166-0.139,0.178-0.247c0.011-0.108-0.036-0.214-0.124-0.278
		c-0.243-0.177-0.541-0.371-0.865-0.57c0.353,0.141,0.685,0.264,0.976,0.354c0.103,0.032,0.213,0.007,0.293-0.064
		c0.079-0.071,0.116-0.179,0.097-0.284c-0.033-0.177-0.09-0.346-0.166-0.51c0.4,0.376,0.664,0.677,0.67,0.684
		c0.092,0.105,0.245,0.135,0.368,0.072c0.125-0.063,0.191-0.203,0.16-0.339c-0.01-0.044-1.033-4.332-5.51-4.332
		c-1.125,0-2.383,0.273-3.74,0.813c-0.075,0.03-0.136,0.089-0.168,0.164c-0.032,0.075-0.033,0.159-0.002,0.234
		C9.18,15.777,10.901,17.43,13.372,17.43z M11.53,11.302c2.473,0,3.756,1.426,4.382,2.545c-0.563-0.487-1.283-1.007-1.989-1.231
		c-0.14-0.044-0.29,0.017-0.361,0.145c-0.07,0.129-0.039,0.288,0.074,0.382c0.729,0.602,1.258,1.059,1.546,1.523
		c-0.716-0.272-1.577-0.659-2.301-0.984c-1.241-0.557-1.696-0.752-1.925-0.752c-0.12,0-0.272,0.087-0.322,0.197
		c-0.146,0.329-0.008,0.406,1.681,1.348c0.728,0.406,1.593,0.888,2.269,1.318c-0.535,0.042-1.226-0.065-2.07-0.212
		c-0.148-0.028-0.286,0.055-0.338,0.192c-0.052,0.136,0,0.291,0.124,0.368c0.479,0.298,1.144,0.499,1.774,0.637
		c-0.236,0.026-0.469,0.041-0.701,0.041c-1.507,0-3.282-0.585-5.069-4.858C9.477,11.524,10.561,11.302,11.53,11.302z"/>
	<path fill="#39B54A" d="M12.679,26.708c-0.13,0-0.164,0.085-0.226,0.24c-0.024,0.06-0.059,0.148-0.102,0.251
		c-0.002-0.044-0.007-0.087-0.014-0.129c-0.011-0.066-0.056-0.12-0.119-0.144c-0.061-0.022-0.132-0.012-0.184,0.03
		c-0.081,0.066-0.169,0.143-0.261,0.227c0.072-0.102,0.138-0.198,0.194-0.288c0.034-0.056,0.038-0.125,0.008-0.184
		c-0.03-0.058-0.088-0.097-0.153-0.102c-0.065-0.006-0.131-0.004-0.195,0.002c0.209-0.126,0.361-0.201,0.365-0.203
		c0.078-0.039,0.104-0.126,0.084-0.211s-0.111-0.145-0.197-0.145c-0.243,0-1.497,0.049-2.362,1.023
		c-0.683,0.77-0.941,1.907-0.765,3.377c0.006,0.049,0.031,0.094,0.071,0.125c0.033,0.026,0.074,0.04,0.115,0.04
		c0.008,0,0.015,0,0.023-0.001c3.69-0.459,3.792-2.02,3.892-3.53l0.012-0.177c0.003-0.052-0.015-0.103-0.05-0.141
		C12.781,26.73,12.732,26.708,12.679,26.708z M9.105,30.219c-0.121-1.267,0.112-2.241,0.693-2.896
		c0.371-0.418,0.826-0.642,1.221-0.761c-0.306,0.22-0.627,0.498-0.822,0.804c-0.048,0.075-0.036,0.175,0.029,0.236
		c0.066,0.062,0.165,0.069,0.238,0.016c0.38-0.272,0.681-0.479,0.95-0.576c-0.239,0.327-0.543,0.703-0.802,1.022
		c-0.686,0.846-0.791,0.976-0.6,1.131c0.033,0.027,0.08,0.043,0.122,0.043c0.122,0,0.194-0.062,0.849-0.741
		c0.3-0.31,0.653-0.676,0.962-0.964c-0.062,0.275-0.206,0.602-0.386,0.991c-0.037,0.081-0.012,0.178,0.06,0.23
		c0.073,0.052,0.172,0.046,0.238-0.016c0.197-0.186,0.376-0.458,0.526-0.733C12.191,29.04,11.584,29.875,9.105,30.219z"/>
</g>
<g>
	<path fill="#DA1C5C" d="M73.737,28.711c0,0-2.391-1.997-5.086-3.213c-5.181-2.338-10.371-6.319-9.213-12.693
		c0.851-3.754,5.284-6.606,10.882-4.88c2.626,1.023,4.712,4.036,2.963,10.605c0.405-5.126-0.371-8.189-3.826-9.022
		c-3.455-0.833-6.054,1.759-6.766,3.92c-0.329,0.997-0.961,5.832,3.546,9.284s7.323,5.121,7.411,5.56
		c1.332-1.661,7.864-6.629,8.561-13.024c0.698-6.395-5.134-10.943-9.244-6.497c1.174-3.691,7.781-4.165,10.98-0.86
		c3.2,3.304,3.072,8.605-1.807,13.353C79.417,23.892,74.783,26.765,73.737,28.711z"/>
	<path fill="#DA1C5C" d="M73.603,27.791c0,0,3.164-20.083,15.216-19.795c3.859,0.252,5.285,1.426,5.285,1.426
		S80.068,8.029,73.603,27.791z"/>
	<path fill="#DA1C5C" d="M73.603,27.974c0,0-4.952-14.535-19.008-10.751C63.235,12.525,71.265,16.007,73.603,27.974z"/>
	
		<ellipse transform="matrix(0.6979 -0.7162 0.7162 0.6979 8.126 43.9782)" fill="#DA1C5C" cx="56.189" cy="12.358" rx="1.51" ry="2.642"/>
	
		<ellipse transform="matrix(0.9742 0.2258 -0.2258 0.9742 3.3069 -19.3021)" fill="#DA1C5C" cx="86.051" cy="4.808" rx="1.51" ry="2.642"/>
	<path fill="#DA1C5C" d="M71.52,11.329c0,0-1.558,3.505,1.412,6.815C72.25,16.051,71.276,13.812,71.52,11.329z"/>
</g>
<g>
	<path fill="#00A79D" d="M131.213,27.934c-2.51,0-4.76-1.397-5.871-3.646c-0.774-1.567-0.892-3.342-0.331-4.997
		c0.561-1.656,1.732-2.994,3.299-3.768c0.911-0.45,1.884-0.678,2.894-0.678c2.51,0,4.76,1.397,5.871,3.646
		c1.598,3.235,0.266,7.167-2.968,8.765C133.196,27.706,132.222,27.934,131.213,27.934z M131.204,16.249
		c-0.792,0-1.556,0.179-2.272,0.533c-1.231,0.608-2.151,1.659-2.592,2.959s-0.348,2.694,0.26,3.925
		c0.873,1.767,2.64,2.865,4.612,2.865c0.792,0,1.556-0.18,2.272-0.533c2.541-1.255,3.586-4.343,2.332-6.884
		C134.944,17.347,133.177,16.249,131.204,16.249z"/>
	<path fill="#00A79D" d="M139.488,17.756c-1.679,0-3.184-0.935-3.927-2.439c-0.518-1.048-0.597-2.235-0.222-3.343
		c0.375-1.107,1.159-2.002,2.207-2.52C138.156,9.153,138.807,9,139.482,9c1.679,0,3.184,0.935,3.927,2.439
		c0.518,1.048,0.597,2.235,0.222,3.343c-0.375,1.107-1.159,2.002-2.207,2.52C140.814,17.603,140.163,17.756,139.488,17.756z
		 M139.482,10.17c-0.494,0-0.971,0.112-1.417,0.333c-0.768,0.379-1.342,1.035-1.617,1.847c-0.274,0.811-0.217,1.681,0.163,2.449
		c0.544,1.103,1.647,1.788,2.878,1.788c0.494,0,0.971-0.112,1.417-0.333c0.768-0.379,1.343-1.035,1.617-1.847
		c0.275-0.811,0.217-1.681-0.162-2.449C141.816,10.855,140.713,10.17,139.482,10.17z"/>
	<circle fill="#00A79D" cx="131.208" cy="21.39" r="1.537"/>
	<path fill="#00A79D" d="M120.502,19.049c-3.229,0-6.123-1.797-7.552-4.69c-2.056-4.161-0.343-9.219,3.818-11.275
		c1.172-0.579,2.424-0.872,3.723-0.872c3.229,0,6.123,1.797,7.552,4.691c0.996,2.016,1.147,4.298,0.426,6.428
		s-2.229,3.851-4.245,4.847C123.053,18.755,121.8,19.049,120.502,19.049z M120.491,4.083c-1.008,0-1.982,0.228-2.894,0.679
		c-3.235,1.599-4.567,5.531-2.969,8.767c1.111,2.25,3.362,3.647,5.874,3.647c1.008,0,1.981-0.228,2.893-0.679
		c1.567-0.774,2.74-2.113,3.3-3.769c0.561-1.656,0.443-3.431-0.331-4.998C125.253,5.481,123.002,4.083,120.491,4.083z"/>
	<circle fill="#00A79D" cx="139.485" cy="13.378" r="1.332"/>
	<circle fill="#00A79D" cx="120.496" cy="10.63" r="1.537"/>
	<polygon fill="#00A79D" points="131.365,21.724 131.251,21.612 120.383,10.744 120.609,10.517 131.365,21.272 139.372,13.265 
		139.598,13.491 	"/>
</g>
<g>
	<path fill="#C2C91F" d="M180.458,16.158c-0.033-2.797,3.208-4.681,4.511-3.689c1.304,0.992,0.686,2.73,0.686,2.73
		s2.498-2.829,0.734-4.374c-2.148-1.881-6.472-1.835-9.507,2.868c1.086-1.193,2.31-1.62,3.329-1.77
		c-0.317,0.191-0.644,0.426-0.981,0.717c-2.594,2.232-3.553,4.264-3.155,11.05c0.399,6.786,0.199-3.284,1.495-5.473
		c0,6.13,12.16,11.457,18.339,0.438C190.627,26.755,180.564,25.133,180.458,16.158z"/>
	<path fill="#C2C91F" d="M176.547,14.437c-0.588-0.38-1.289,2.617-2.448,3.304c-1.464,0.868-3.377-1.331-2.068-5.393
		c1.902-5.898,6.334-7.102,9.825-7.102c2.392,0,7.376,2.08,6.329,7.662c2.591-3.229-1.645-10.891-10.296-8.792
		c-2.187,0.531-3.961,1.696-5.323,3.195c1.707-3.637,5.049-4.778,6.007-5.036c-5.978,1.459-7.807,5.314-8.262,8.407
		c-0.13-1.906-0.037-3.872,0.557-5.41c0,0-1.95,4.242-1.496,8.997c-0.011,0.08-0.02,0.159-0.03,0.239
		c-0.828-1.81-1.478-3.587-1.462-4.951c-0.09,1.826-0.23,9.526,3.588,12.35c1.517,1.518,2.514,0.555,2.862-1.117
		C174.73,18.874,175.727,15.736,176.547,14.437z"/>
	<path fill="#C2C91F" d="M183.526,18.391c-2.652-1-1.749-4.305-2.195-3.192c-0.915,2.283-0.009,3.935,1.663,5.525
		c1.746,1.66,5.814,1.359,7.941-0.228c4.282-3.196,4.086-7.797,4.086-7.797s-0.677,4.098-3.629,5.788
		c3.742-4.657,3.326-9.086,1.834-10.896c0.66,1.855,1.159,4.732-1.794,8.83c1.955-4.007,2.121-8.207-2.891-13.276
		c-0.274-0.277,1.583,1.577,2.31,4.43C193.18,16.706,186.397,19.474,183.526,18.391z"/>
	<path fill="#C2C91F" d="M185.386,13.587c-0.914-1.38-1.965-0.477-2.878-0.301C183.147,14.34,185.386,13.587,185.386,13.587z"/>
	<path fill="#C2C91F" d="M178.575,2.276c0.088-0.021,0.174-0.044,0.264-0.064C178.839,2.211,178.742,2.23,178.575,2.276z"/>
	<path fill="#C2C91F" d="M167.891,9.39c0.004-0.076,0.006-0.154,0.015-0.227C167.906,9.163,167.899,9.244,167.891,9.39z"/>
	<path fill="#C2C91F" d="M167.882,9.556c0.003-0.063,0.006-0.118,0.009-0.166C167.888,9.445,167.882,9.499,167.882,9.556z"/>
	<path fill="#C2C91F" d="M177.4,20.863c0,0-0.801,4.414,0.972,6.169c1.773,1.755,2.917,2.181,2.917,2.181s-2.688-2.287-2.688-3.829
		c2.402,2.021,5.147,2.925,10.409,1.276C183.005,27.139,178.772,25.543,177.4,20.863z"/>
	<path fill="#C2C91F" d="M175.284,20.863c-2.688,5.637-0.915,7.552-0.915,7.552s0,0,0-2.766s0.686,1.861,2.517,3.616
		C174.368,26.501,175.284,20.863,175.284,20.863z"/>
</g>
<g>
	<path fill="#FBB040" d="M232.254,19.963c-4.012-1.938-3.522-5.845-1.583-9.224c1.728-3.012,4.724-3.861,7.902-4.109
		c5.985-0.468,9.135,3.589,9.359,9.271c0.198,5.023-6.908,8.421-10.931,9.176c-6.543,1.229-10.937-4.36-13.417-9.548
		c-1.16-2.427-3.82-0.607-2.792,1.542c3.598,7.527,9.622,14.056,18.722,11.674c8.231-2.155,13.599-9.796,10.718-18.139
		c-2.311-6.691-10.476-10.587-17.158-7.079c-7.323,3.844-10.539,15.997-1.826,20.207C233.416,24.782,234.015,20.814,232.254,19.963
		L232.254,19.963z"/>
	<path fill="#FBB040" d="M239.759,20.482c-0.015-0.758-0.124-1.765-1.435-2.336c-1.344-0.585-2.9-0.372-3.468-2.719
		c-0.301-1.245,0.519-2.209,1.561-2.572c0.836-0.291,2.188-0.186,3.159,1.281c-0.365-0.552,0.513-1.75,1.496-1.881
		c1.329-0.178,2.107,0.733,2.277,1.891C243.749,16.878,240.588,19.88,239.759,20.482z"/>
</g>
<g>
	<path fill="#88AB2E" d="M281.185,12.905c1.464-1.718,4.137-0.255,7.065,0.509c2.928,0.764,4.583-1.337,7.001-1.273
		c2.419,0.064,3.819,1.909,3.755,6.237c-0.064,4.328-2.419,6.301-5.028,6.937c-2.609,0.636-6.11-1.337-6.937-2.355
		c-0.827-1.018-1.146-0.891-1.846-0.191c-0.7,0.7,0.191,1.973,0.191,1.973C280.166,22.643,279.721,14.623,281.185,12.905z
		 M288.949,27.098c0,0,4.901,1.655,7.256-0.255s4.901-5.537,4.646-10.884c-0.255-5.346-1.782-7.001-5.092-6.301
		c-3.31,0.7-4.964,2.61-9.229,0.827s-6.619-0.127-7.701,3.31S279.211,29.962,288.949,27.098z M290.181,7.082
		c-0.117,1.524,0.296,2.131-0.786,3.468c-1.082,1.337-1.718-2.291-0.255-5.092s4.583-3.182,5.665-3.246
		c1.082-0.064,0.899,2.851,0.326,4.569s-3.614,4.167-4.376,3.637c-0.629-0.438-0.109-1.723,1.567-2.478
		c1.663-0.749,1.273-3.31,1.273-3.31C292.832,4.504,290.345,4.949,290.181,7.082z"/>
	<path fill="#88AB2E" d="M289.716,22.497l-0.601-0.598c-2.228-1.971-3.685-3.3-3.685-4.93c0-1.326,1.03-2.356,2.356-2.356
		c0.731,0,1.459,0.343,1.93,0.9c0.471-0.557,1.199-0.9,1.93-0.9c1.326,0,2.356,1.03,2.356,2.356c0,1.63-1.457,2.959-3.685,4.93
		L289.716,22.497z"/>
</g>
<path fill="#ED1C24" d="M356.897,8.606c-1.474-4.88-7.186-4.355-10.329-1.503c-0.661-1.893-1.792-3.54-3.912-4.198
	c-3.132-0.972-7.418-1.225-9.97,1.268c-2.712,2.649-3.437,5.731-1.998,9.26c0.567,1.389,1.896,2.783,3.275,3.4
	c2.593,1.162,5.236,0.917,4.719,4.77c-0.105,0.778,0.631,0.996,1.373,0.834c-0.43,0.937-0.687,2.044-0.732,3.437
	c-0.049,1.515,2.739,0.975,2.783-0.385c0.191-5.949,8.036-5.541,11.663-8.309C356.576,15.037,357.946,12.081,356.897,8.606z
	 M354.261,12.966c-0.902,3.483-5.853,4.396-8.761,5.391c-1.687,0.577-2.998,1.238-3.988,2.113c0.172-3.187-1.563-4.317-4.714-5.178
	c-5.208-1.423-5.718-9.412,0.038-10.799c4.54-1.094,7.102,2.231,7.688,6.168c0.235,1.58,2.58,0.911,2.783-0.385
	c0.312-1.997,3.319-3.601,5.162-2.692C354.604,8.637,354.759,11.043,354.261,12.966z M342.551,18.19c0,0,0.457-1.206-0.083-2.245
	s-2.165-1.641-1.625-3.545c0.286-1.01,1.593-1.276,2.416-0.902c0.48,0.218,1.291,0.73,1.371,1.953
	c-0.035-0.542,1.501-0.772,2.109-0.531c0.992,0.393,1.25,1.291,0.926,2.194c-0.398,1.11-2.066,1.375-3.216,1.789
	C343.299,17.316,342.551,18.19,342.551,18.19z"/>
</svg>
